<svg xmlns="http://www.w3.org/2000/svg" viewBox="0 0 68.03 68.11" role="img" aria-labelledby="title">
  <title id="title">Snell Roundhand D favicon</title>
  <defs>
    <clipPath id="vermilion-main-stroke" clipPathUnits="userSpaceOnUse">
      <path d="M45.5 16.5C48 17 50 18.5 51.2 20.5L29 58.8C24.5 61 18.2 61.4 13.5 59.2Z"/>
    </clipPath>
  </defs>
  <path d="M16.1.57c9.98-.79 24.79-.69 34.86-.12s15.87 5.3 16.57 15.9.67 25.2 0 35.32-5.58 15.18-15.52 15.88c-10.08.71-26.32.76-36.37 0S1.05 61.01.46 51.34c-.61-10.1-.61-24.55 0-34.65S5.84 1.39 16.1.57" fill="#f2f2f2"/>
  <path d="M1210 830V844C1112 835 1018 811 932 760C872 800 771 830 666 830C539 830 401 790 296 718C185 643 113 537 113 412C113 308 181 213 298 213C451 213 564 323 564 499C564 542 553 600 531 651L520 646C542 595 550 538 550 492C550 388 483 247 362 247C274 247 246 320 246 397C246 634 461 817 661 817C772 817 853 789 910 749C760 659 685 506 588 325C500 160 419 32 299 14L174 39C136 47 106 51 84 51C66 51 53 48 45 43C37 37 33 31 33 23C33 9 43-1 62-8C81-15 107-18 141-18C196-18 252-10 293-5C320-8 390-18 482-18C635-18 791 2 920 70C1043 135 1129 250 1129 422C1129 555 1059 665 978 728C1037 796 1122 825 1210 830ZM334 6V8C470 48 562 107 634 179C669 215 699 254 726 296C813 437 863 566 955 704C990 657 996 596 996 537C996 439 966 306 875 183C792 71 662-5 497-5C443-5 376-2 334 6Z" fill="#222124" transform="translate(7.5 52.5) scale(.043 -.043)"/>
  <g clip-path="url(#vermilion-main-stroke)">
    <path d="M1210 830V844C1112 835 1018 811 932 760C872 800 771 830 666 830C539 830 401 790 296 718C185 643 113 537 113 412C113 308 181 213 298 213C451 213 564 323 564 499C564 542 553 600 531 651L520 646C542 595 550 538 550 492C550 388 483 247 362 247C274 247 246 320 246 397C246 634 461 817 661 817C772 817 853 789 910 749C760 659 685 506 588 325C500 160 419 32 299 14L174 39C136 47 106 51 84 51C66 51 53 48 45 43C37 37 33 31 33 23C33 9 43-1 62-8C81-15 107-18 141-18C196-18 252-10 293-5C320-8 390-18 482-18C635-18 791 2 920 70C1043 135 1129 250 1129 422C1129 555 1059 665 978 728C1037 796 1122 825 1210 830ZM334 6V8C470 48 562 107 634 179C669 215 699 254 726 296C813 437 863 566 955 704C990 657 996 596 996 537C996 439 966 306 875 183C792 71 662-5 497-5C443-5 376-2 334 6Z" fill="#a54139" transform="translate(7.5 52.5) scale(.043 -.043)"/>
  </g>
  <path d="M17.4 52.2c1.6.1 3.7.4 5.1.8-.9.9-2.5 1.3-4.2 1.1-.8-.1-1.5-.4-1.9-.8.2-.4.6-.8 1-1.1" fill="#a54139"/>
</svg>
